# xmcd
#
# Track frame offsets:
#	150
#	23696
#	48410
#	69561
#	93621
#	117421
#	143695
#	181781
#	216592
#
# Disc length: 2977 seconds
#
# Revision: 1
# Processed by: cddbd v1.5.2PL0 Copyright (c) Steve Scherf et al.
# Submitted via: audiograbber 1.83.01
#
DISCID=800b9f09
DTITLE=Billy Iuso - When Can I Some Home
DYEAR=2006
DGENRE=Blues
TTITLE0=Da Minor Jam
TTITLE1=When Can I Come Home
TTITLE2=Captain Walker
TTITLE3=Don't Let Go
TTITLE4=The Heavy
TTITLE5=Sweet Vermouth
TTITLE6=Two Deep In The Shallows
TTITLE7=The Other One
TTITLE8=Shake Em Down
EXTD=
EXTT0=
EXTT1=
EXTT2=
EXTT3=
EXTT4=
EXTT5=
EXTT6=
EXTT7=
EXTT8=
PLAYORDER=
